<?xml version="1.0" encoding="UTF-8"?>
<svg width="475px" height="295px" viewBox="0 0 475 295" version="1.1" xmlns="http://www.w3.org/2000/svg" xmlns:xlink="http://www.w3.org/1999/xlink">
    <title>Logo confimprese colore</title>
    <defs>
        <polygon id="path-1" points="0 294.12 474.271 294.12 474.271 0 0 0"></polygon>
    </defs>
    <g id="logo-confimprese-colore" stroke="none" stroke-width="1" fill="none" fill-rule="evenodd">
        <g id="Page-1">
            <path d="M181.6309,168.1981 C180.6909,161.3191 180.2009,154.3441 180.2009,147.4511 C180.2009,139.7291 180.7989,131.9521 181.9649,124.3471 L190.3049,124.3471 L190.2819,124.4931 C189.0899,132.0571 188.4789,139.7881 188.4789,147.4511 C188.4789,154.3251 188.9719,161.2771 189.9439,168.1241 L181.6309,168.1981 Z" id="Fill-1" fill="#C5342E"></path>
            <path d="M469.249,103.0287 C463.849,85.7317 455.28,69.5757 444.048,55.4167 C436.829,46.0737 428.397,37.7787 418.966,30.6497 C418.394,30.2077 417.819,29.7677 417.241,29.3347 C402.546,18.3797 385.957,10.1237 367.591,5.1647 C367.088,5.0287 366.929,4.9987 366.767,4.9557 C365.243,4.5527 363.718,4.1787 362.192,3.8287 C360.877,3.5207 359.561,3.2407 358.245,2.9657 C357.614,2.8437 356.976,2.7187 356.331,2.5957 C325.126,-3.3613 294.018,1.1587 266.911,13.8797 C226.102,32.1477 195.172,68.5327 184.376,112.8127 L192.425,112.8127 C208.341,51.7257 263.7,6.5197 329.611,6.5197 C344.407,6.5197 358.598,8.4877 371.9,12.1917 C416.331,27.2177 448.82,62.6597 461.655,105.0367 L455.096,103.9807 L470.278,124.3477 L474.27,99.2677 L469.249,103.0287 Z" id="Fill-3" fill="#C5342E"></path>
            <path d="M243.7412,126.4042 L243.7412,166.3232 C243.7412,167.8502 242.9872,168.2492 241.7552,168.2492 L235.1762,168.2492 C233.9432,168.2492 233.1892,167.8502 233.1892,166.3232 L233.1892,143.8062 L226.3372,155.4302 C225.9942,155.9622 225.3772,156.8252 224.3492,156.8252 L220.9242,156.8252 C219.8952,156.8252 219.3472,155.9622 219.0052,155.4302 L212.0842,143.8062 L212.0842,166.3232 C212.0842,167.8502 211.3312,168.2492 210.0972,168.2492 L203.3142,168.2492 C202.0802,168.2492 201.3262,167.8502 201.3262,166.3232 L201.3262,126.4042 C201.3262,125.2092 201.7382,124.4782 203.3142,124.4782 L210.0972,124.4782 C212.4272,124.4782 212.7012,125.9392 213.2492,126.7362 L222.6372,143.0752 L232.0922,126.7362 C232.5722,125.9392 232.9152,124.4782 235.1762,124.4782 L241.7552,124.4782 C243.3292,124.4782 243.7412,125.2092 243.7412,126.4042" id="Fill-5" fill="#363F46"></path>
            <path d="M278.8887,140.1532 C278.8887,136.6992 276.5577,133.9102 271.2137,133.9102 L264.6357,133.9102 L264.6357,146.3302 L271.2137,146.3302 C276.5577,146.3302 278.8887,143.4742 278.8887,140.1532 M289.2357,139.9542 C289.2357,149.1862 282.9307,155.2982 271.2137,155.2982 L264.6357,155.2982 L264.6357,166.3232 C264.6357,167.8502 263.8817,168.2492 262.6497,168.2492 L255.8667,168.2492 C254.6317,168.2492 253.8777,167.8502 253.8777,166.3232 L253.8777,126.4702 C253.8777,125.2752 254.2897,124.5442 255.8667,124.5442 L271.2827,124.5442 C283.0677,124.5442 289.2357,130.7882 289.2357,139.9542" id="Fill-7" fill="#363F46"></path>
            <path d="M332.8105,168.2489 L324.7255,168.2489 C323.0805,168.2489 322.2585,167.6509 321.2985,166.2569 L313.8975,155.5629 C313.2825,154.7669 313.1435,154.0359 313.1435,152.1749 L313.1435,146.8619 C313.1435,145.6659 313.5555,144.9359 315.1315,144.9359 L316.5025,144.9359 C319.8595,144.9359 323.0125,142.6769 323.0125,139.5549 C323.0125,136.1019 320.2715,133.9099 316.7075,133.9099 L307.5945,133.9099 L307.5945,166.3229 C307.5945,167.8509 306.8405,168.2489 305.6065,168.2489 L298.8235,168.2489 C297.5905,168.2489 296.9055,167.8509 296.9055,166.3229 L296.9055,126.5369 C296.9055,125.3419 297.2475,124.6109 298.8235,124.6109 L316.0905,124.6109 C323.5595,124.6109 326.8485,126.0719 329.7255,128.8619 C332.2625,131.2529 333.7005,135.0389 333.7005,139.2899 C333.7005,146.2639 328.4245,151.1119 324.1755,152.5069 L333.8375,166.1239 C334.4545,167.0539 334.1125,168.2489 332.8105,168.2489" id="Fill-9" fill="#363F46"></path>
            <path d="M377.208,160.8759 L377.208,166.3229 C377.208,167.5189 376.796,168.2489 375.221,168.2489 L344.522,168.2489 C342.947,168.2489 342.536,167.5189 342.536,166.3229 L342.536,126.4709 C342.536,125.2749 342.947,124.5439 344.522,124.5439 L374.056,124.5439 C375.632,124.5439 376.042,125.2749 376.042,126.4709 L376.042,131.9839 C376.042,133.1799 375.632,133.9099 374.056,133.9099 L353.363,133.9099 L353.363,141.1489 L371.726,141.1489 C373.302,141.1489 373.714,141.8799 373.714,143.0759 L373.714,148.2559 C373.714,149.4519 373.302,150.1829 371.726,150.1829 L353.363,150.1829 L353.363,158.9499 L375.221,158.9499 C376.796,158.9499 377.208,159.6809 377.208,160.8759" id="Fill-11" fill="#363F46"></path>
            <path d="M418.9326,155.2977 C418.9326,164.7287 411.2586,169.2447 400.7076,169.2447 C392.1426,169.2447 382.2746,164.4627 382.2746,155.1647 C382.2746,153.6377 382.6866,153.3037 384.2626,153.3037 L390.9096,153.3037 C392.4856,153.3037 393.2386,153.5047 393.3736,155.1647 C393.4446,156.0277 393.7866,156.8917 394.6776,157.8877 C396.0476,159.4817 398.8566,160.0787 401.3916,160.0787 C405.0916,160.0787 408.1066,159.2817 408.1066,155.5637 C408.1066,151.8427 402.0086,151.7767 396.1846,149.9837 C389.2646,147.8577 382.8926,145.2007 382.8926,136.7657 C382.8926,128.1307 390.9776,123.8807 399.5416,123.5477 C408.2446,123.5477 417.7686,127.4007 417.7686,136.1677 C417.7686,137.7617 417.3576,138.0277 415.7826,138.0277 L409.0666,138.0277 C407.7646,138.0277 407.5596,137.0977 407.2166,136.2347 C406.9426,135.5697 406.5996,135.0387 405.7786,134.2417 C404.4756,133.0467 402.0086,132.4487 399.9536,132.4487 C397.6926,132.4487 393.9246,133.3127 393.9246,136.3007 C393.9246,140.3527 403.9956,141.8137 406.7376,142.8767 C411.6686,144.3377 418.9326,146.2637 418.9326,155.2977" id="Fill-13" fill="#363F46"></path>
            <path d="M461.6182,160.8759 L461.6182,166.3229 C461.6182,167.5189 461.2072,168.2489 459.6322,168.2489 L428.9332,168.2489 C427.3582,168.2489 426.9462,167.5189 426.9462,166.3229 L426.9462,126.4709 C426.9462,125.2749 427.3582,124.5439 428.9332,124.5439 L458.4662,124.5439 C460.0432,124.5439 460.4532,125.2749 460.4532,126.4709 L460.4532,131.9839 C460.4532,133.1799 460.0432,133.9099 458.4662,133.9099 L437.7742,133.9099 L437.7742,141.1489 L456.1372,141.1489 C457.7122,141.1489 458.1242,141.8799 458.1242,143.0759 L458.1242,148.2559 C458.1242,149.4519 457.7122,150.1829 456.1372,150.1829 L437.7742,150.1829 L437.7742,158.9499 L459.6322,158.9499 C461.2072,158.9499 461.6182,159.6809 461.6182,160.8759" id="Fill-15" fill="#363F46"></path>
            <path d="M16.5352,168.4677 C11.6212,168.4677 7.6372,166.8657 4.7152,164.1557 C0.2652,160.0277 0.0002,156.2077 0.0002,146.1647 C0.0002,136.1237 0.2652,132.3037 4.7152,128.1757 C7.6372,125.4657 11.6212,123.8637 16.5352,123.8637 C25.1012,123.8637 31.2772,128.7307 32.9372,136.9247 L27.7582,136.9247 C26.4962,131.5027 22.4452,128.0527 16.5352,128.0527 C13.3472,128.0527 10.5582,129.0997 8.3672,131.1337 C5.3792,133.9677 5.0472,137.1707 5.0472,146.1647 C5.0472,155.1597 5.3792,158.3637 8.3672,161.1977 C10.5582,163.2317 13.3472,164.2787 16.5352,164.2787 C22.4452,164.2787 26.6292,160.8277 27.8902,155.4067 L32.9372,155.4067 C31.2772,163.6007 25.0352,168.4677 16.5352,168.4677" id="Fill-17" fill="#363F46"></path>
            <path d="M69.5933,131.1332 C67.4023,129.1002 64.6133,128.0522 61.4253,128.0522 C58.2383,128.0522 55.4483,129.1002 53.2573,131.1332 C50.2693,133.9672 49.9373,137.1702 49.9373,146.1652 C49.9373,155.1602 50.2693,158.3642 53.2573,161.1982 C55.4483,163.2312 58.2383,164.2782 61.4253,164.2782 C64.6133,164.2782 67.4023,163.2312 69.5933,161.1982 C72.5813,158.3642 72.9133,155.1602 72.9133,146.1652 C72.9133,137.1702 72.5813,133.9672 69.5933,131.1332 M73.1793,164.1552 C70.2573,166.8662 66.3393,168.4672 61.4253,168.4672 C56.5113,168.4672 52.5273,166.8662 49.6053,164.1552 C45.1563,160.0272 44.8903,156.2082 44.8903,146.1652 C44.8903,136.1232 45.1563,132.3032 49.6053,128.1752 C52.5273,125.4652 56.5113,123.8632 61.4253,123.8632 C66.3393,123.8632 70.2573,125.4652 73.1793,128.1752 C77.6283,132.3032 77.9603,136.1232 77.9603,146.1652 C77.9603,156.2082 77.6283,160.0272 73.1793,164.1552" id="Fill-19" fill="#363F46"></path>
            <polygon id="Fill-21" fill="#363F46" points="122.6509 168.0985 97.5489 132.9195 97.5489 168.0985 92.5029 168.0985 92.5029 124.2325 97.2839 124.2325 122.3849 159.2875 122.3849 124.2325 127.4319 124.2325 127.4319 168.0985"></polygon>
            <polygon id="Fill-23" fill="#363F46" points="148.7476 128.4222 148.7476 144.5632 169.4666 144.5632 169.4666 148.7532 148.7476 148.7532 148.7476 168.0982 143.7006 168.0982 143.7006 124.2332 173.0526 124.2332 173.0526 128.4222"></polygon>
            <polygon id="Fill-25" fill="#363F46" points="1.4526 194.1805 1.4526 179.6545 4.5086 179.6545 4.5086 191.6505 11.6096 191.6505 11.6096 194.1805"></polygon>
            <polygon id="Fill-27" fill="#363F46" points="15.8101 194.1805 15.8101 179.6545 26.1211 179.6545 26.1211 182.1845 18.8661 182.1845 18.8661 185.5915 25.0431 185.5915 25.0431 188.1205 18.8661 188.1205 18.8661 191.6505 26.1211 191.6505 26.1211 194.1805"></polygon>
            <mask id="mask-2" fill="white">
                <use xlink:href="#path-1"></use>
            </mask>
            <g id="Clip-30"></g>
            <polygon id="Fill-29" fill="#363F46" mask="url(#mask-2)" points="37.643 194.18 40.699 194.18 40.699 179.654 37.643 179.654"></polygon>
            <polygon id="Fill-31" fill="#363F46" mask="url(#mask-2)" points="57.188 194.1805 57.188 185.7135 54.198 191.2215 52.131 191.2215 49.12 185.7135 49.12 194.1805 46.063 194.1805 46.063 179.6545 49.076 179.6545 53.165 187.5085 57.232 179.6545 60.244 179.6545 60.244 194.1805"></polygon>
            <path d="M71.5234,182.1845 L68.6654,182.1845 L68.6654,186.1635 L71.5234,186.1635 C72.9084,186.1635 73.7884,185.3665 73.7884,184.1845 C73.7884,183.0005 72.9084,182.1845 71.5234,182.1845 M71.6774,188.7125 L68.6654,188.7125 L68.6654,194.1805 L65.6094,194.1805 L65.6094,179.6545 L71.6774,179.6545 C74.9304,179.6545 76.8434,181.7155 76.8434,184.1845 C76.8434,186.6535 74.9304,188.7125 71.6774,188.7125" id="Fill-32" fill="#363F46" mask="url(#mask-2)"></path>
            <path d="M87.0679,182.1845 L84.1879,182.1845 L84.1879,186.0205 L87.0679,186.0205 C88.4089,186.0205 89.2889,185.2235 89.2889,184.1025 C89.2889,182.9805 88.4089,182.1845 87.0679,182.1845 Z M89.4429,194.1805 L86.3859,188.3865 L84.1879,188.3865 L84.1879,194.1805 L81.1319,194.1805 L81.1319,179.6545 L87.2659,179.6545 C90.4529,179.6545 92.3439,181.6745 92.3439,184.1025 C92.3439,186.1415 91.0029,187.4075 89.4859,187.9175 L92.9819,194.1805 L89.4429,194.1805 Z" id="Fill-33" fill="#363F46" mask="url(#mask-2)"></path>
            <polygon id="Fill-34" fill="#363F46" mask="url(#mask-2)" points="97.2266 194.1805 97.2266 179.6545 107.5376 179.6545 107.5376 182.1845 100.2826 182.1845 100.2826 185.5915 106.4596 185.5915 106.4596 188.1205 100.2826 188.1205 100.2826 191.6505 107.5376 191.6505 107.5376 194.1805"></polygon>
            <path d="M116.5522,194.3026 C114.1782,194.3026 112.3752,193.8326 110.8362,192.3856 L112.8152,190.5496 C113.8042,191.4676 115.1452,191.7736 116.5742,191.7736 C118.3992,191.7736 119.3662,191.1196 119.3662,189.9566 C119.3662,189.4676 119.2132,189.0596 118.8832,188.7526 C118.5742,188.4896 118.2672,188.3656 117.4752,188.2636 L115.6072,187.9986 C114.2222,187.8156 113.2772,187.4286 112.5732,186.7956 C111.8252,186.1216 111.4522,185.1626 111.4522,183.9386 C111.4522,181.3476 113.5182,179.5316 116.9042,179.5316 C119.0582,179.5316 120.6192,180.0226 121.9602,181.2256 L120.0262,183.0006 C119.0582,182.1226 117.8492,182.0006 116.8162,182.0006 C115.1892,182.0006 114.4202,182.8376 114.4202,183.8366 C114.4202,184.2246 114.5302,184.5916 114.8602,184.8766 C115.1672,185.1426 115.6292,185.3466 116.2882,185.4286 L118.1572,185.6946 C119.5862,185.8776 120.4662,186.2246 121.1472,186.8356 C121.9822,187.5496 122.3562,188.5906 122.3562,189.8966 C122.3562,192.7116 119.8502,194.3026 116.5522,194.3026" id="Fill-35" fill="#363F46" mask="url(#mask-2)"></path>
            <polygon id="Fill-36" fill="#363F46" mask="url(#mask-2)" points="126.9521 194.1805 126.9521 179.6545 137.2631 179.6545 137.2631 182.1845 130.0081 182.1845 130.0081 185.5915 136.1851 185.5915 136.1851 188.1205 130.0081 188.1205 130.0081 191.6505 137.2631 191.6505 137.2631 194.1805"></polygon>
            <path d="M156.4575,183.0829 C155.9525,182.4909 155.2045,182.1849 154.1715,182.1849 L151.8405,182.1849 L151.8405,191.6499 L154.1715,191.6499 C155.2045,191.6499 155.9525,191.3449 156.4575,190.7529 C157.0295,190.1199 157.0955,189.2019 157.0955,186.9169 C157.0955,184.6319 157.0295,183.7139 156.4575,183.0829 M159.1615,192.0599 C158.0405,193.5069 156.5675,194.1809 154.4355,194.1809 L148.7855,194.1809 L148.7855,179.6539 L154.4355,179.6539 C156.5675,179.6539 158.0405,180.3269 159.1615,181.7759 C160.1285,183.0209 160.1505,184.5109 160.1505,186.9169 C160.1505,189.3249 160.1285,190.8149 159.1615,192.0599" id="Fill-37" fill="#363F46" mask="url(#mask-2)"></path>
            <polygon id="Fill-38" fill="#363F46" mask="url(#mask-2)" points="164.9888 194.1805 164.9888 179.6545 175.2998 179.6545 175.2998 182.1845 168.0448 182.1845 168.0448 185.5915 174.2218 185.5915 174.2218 188.1205 168.0448 188.1205 168.0448 191.6505 175.2998 191.6505 175.2998 194.1805"></polygon>
            <polygon id="Fill-39" fill="#363F46" mask="url(#mask-2)" points="180.0059 194.1805 180.0059 179.6545 183.0619 179.6545 183.0619 191.6505 190.1629 191.6505 190.1629 194.1805"></polygon>
            <path d="M206.4336,194.3026 C204.6306,194.3026 203.3116,193.7526 202.2346,192.7726 C200.6736,191.3236 200.6516,189.6926 200.6516,186.9166 C200.6516,184.1436 200.6736,182.5106 202.2346,181.0616 C203.3116,180.0826 204.6306,179.5316 206.4336,179.5316 C209.3576,179.5316 211.6006,181.0826 212.1716,184.1216 L209.0496,184.1216 C208.7426,182.9386 207.9506,182.0626 206.4336,182.0626 C205.5986,182.0626 204.9166,182.3486 204.4766,182.8176 C203.9056,183.4286 203.7076,184.1436 203.7076,186.9166 C203.7076,189.6926 203.9056,190.4066 204.4766,191.0186 C204.9166,191.4876 205.5986,191.7736 206.4336,191.7736 C207.9506,191.7736 208.7646,190.8956 209.0716,189.7116 L212.1716,189.7116 C211.6006,192.7526 209.3356,194.3026 206.4336,194.3026" id="Fill-40" fill="#363F46" mask="url(#mask-2)"></path>
            <path d="M223.5171,182.8378 C223.0781,182.3678 222.3961,182.0628 221.5601,182.0628 C220.7251,182.0628 220.0431,182.3678 219.5821,182.8378 C219.0101,183.4488 218.8341,184.1438 218.8341,186.9168 C218.8341,189.6918 219.0101,190.3658 219.5821,190.9778 C220.0431,191.4468 220.7251,191.7738 221.5601,191.7738 C222.3961,191.7738 223.0781,191.4468 223.5171,190.9778 C224.0891,190.3658 224.2871,189.6918 224.2871,186.9168 C224.2871,184.1438 224.0891,183.4488 223.5171,182.8378 M225.7371,192.7728 C224.6831,193.7528 223.3631,194.3028 221.5601,194.3028 C219.7571,194.3028 218.4161,193.7528 217.3611,192.7728 C215.8011,191.3238 215.7781,189.6918 215.7781,186.9168 C215.7781,184.1438 215.8011,182.5108 217.3611,181.0618 C218.4161,180.0828 219.7571,179.5318 221.5601,179.5318 C223.3631,179.5318 224.6831,180.0828 225.7371,181.0618 C227.2981,182.5108 227.3421,184.1438 227.3421,186.9168 C227.3421,189.6918 227.2981,191.3238 225.7371,192.7728" id="Fill-41" fill="#363F46" mask="url(#mask-2)"></path>
            <polygon id="Fill-42" fill="#363F46" mask="url(#mask-2)" points="243.3047 194.1805 243.3047 185.7135 240.3157 191.2215 238.2477 191.2215 235.2367 185.7135 235.2367 194.1805 232.1807 194.1805 232.1807 179.6545 235.1927 179.6545 239.2827 187.5085 243.3487 179.6545 246.3617 179.6545 246.3617 194.1805"></polygon>
            <polygon id="Fill-43" fill="#363F46" mask="url(#mask-2)" points="262.8496 194.1805 262.8496 185.7135 259.8606 191.2215 257.7936 191.2215 254.7836 185.7135 254.7836 194.1805 251.7266 194.1805 251.7266 179.6545 254.7386 179.6545 258.8276 187.5085 262.8946 179.6545 265.9066 179.6545 265.9066 194.1805"></polygon>
            <polygon id="Fill-44" fill="#363F46" mask="url(#mask-2)" points="271.2734 194.1805 271.2734 179.6545 281.5834 179.6545 281.5834 182.1845 274.3294 182.1845 274.3294 185.5915 280.5064 185.5915 280.5064 188.1205 274.3294 188.1205 274.3294 191.6505 281.5834 191.6505 281.5834 194.1805"></polygon>
            <path d="M292.2256,182.1845 L289.3456,182.1845 L289.3456,186.0205 L292.2256,186.0205 C293.5676,186.0205 294.4466,185.2235 294.4466,184.1025 C294.4466,182.9805 293.5676,182.1845 292.2256,182.1845 Z M294.6006,194.1805 L291.5436,188.3865 L289.3456,188.3865 L289.3456,194.1805 L286.2896,194.1805 L286.2896,179.6545 L292.4236,179.6545 C295.6116,179.6545 297.5026,181.6745 297.5026,184.1025 C297.5026,186.1415 296.1616,187.4075 294.6436,187.9175 L298.1396,194.1805 L294.6006,194.1805 Z" id="Fill-45" fill="#363F46" mask="url(#mask-2)"></path>
            <path d="M307.6377,194.3026 C305.8347,194.3026 304.5167,193.7526 303.4387,192.7726 C301.8777,191.3236 301.8567,189.6926 301.8567,186.9166 C301.8567,184.1436 301.8777,182.5106 303.4387,181.0616 C304.5167,180.0826 305.8347,179.5316 307.6377,179.5316 C310.5617,179.5316 312.8037,181.0826 313.3747,184.1216 L310.2537,184.1216 C309.9467,182.9386 309.1557,182.0626 307.6377,182.0626 C306.8017,182.0626 306.1217,182.3486 305.6817,182.8176 C305.1087,183.4286 304.9107,184.1436 304.9107,186.9166 C304.9107,189.6926 305.1087,190.4066 305.6817,191.0186 C306.1217,191.4876 306.8017,191.7736 307.6377,191.7736 C309.1557,191.7736 309.9677,190.8956 310.2757,189.7116 L313.3747,189.7116 C312.8037,192.7526 310.5397,194.3026 307.6377,194.3026" id="Fill-46" fill="#363F46" mask="url(#mask-2)"></path>
            <polygon id="Fill-47" fill="#363F46" mask="url(#mask-2)" points="317.731 194.18 320.788 194.18 320.788 179.654 317.731 179.654"></polygon>
            <path d="M333.3623,182.8378 C332.9223,182.3678 332.2413,182.0628 331.4053,182.0628 C330.5713,182.0628 329.8883,182.3678 329.4263,182.8378 C328.8563,183.4488 328.6803,184.1438 328.6803,186.9168 C328.6803,189.6918 328.8563,190.3658 329.4263,190.9778 C329.8883,191.4468 330.5713,191.7738 331.4053,191.7738 C332.2413,191.7738 332.9223,191.4468 333.3623,190.9778 C333.9343,190.3658 334.1323,189.6918 334.1323,186.9168 C334.1323,184.1438 333.9343,183.4488 333.3623,182.8378 M335.5833,192.7728 C334.5263,193.7528 333.2093,194.3028 331.4053,194.3028 C329.6023,194.3028 328.2613,193.7528 327.2063,192.7728 C325.6453,191.3238 325.6243,189.6918 325.6243,186.9168 C325.6243,184.1438 325.6453,182.5108 327.2063,181.0618 C328.2613,180.0828 329.6023,179.5318 331.4053,179.5318 C333.2093,179.5318 334.5263,180.0828 335.5833,181.0618 C337.1433,182.5108 337.1863,184.1438 337.1863,186.9168 C337.1863,189.6918 337.1433,191.3238 335.5833,192.7728" id="Fill-48" fill="#363F46" mask="url(#mask-2)"></path>
            <polygon id="Fill-49" fill="#363F46" mask="url(#mask-2)" points="359.9658 194.1805 359.9658 185.7135 356.9758 191.2215 354.9088 191.2215 351.8978 185.7135 351.8978 194.1805 348.8408 194.1805 348.8408 179.6545 351.8548 179.6545 355.9428 187.5085 360.0088 179.6545 363.0228 179.6545 363.0228 194.1805"></polygon>
            <path d="M375.5977,182.8378 C375.1577,182.3678 374.4777,182.0628 373.6417,182.0628 C372.8077,182.0628 372.1237,182.3678 371.6627,182.8378 C371.0917,183.4488 370.9157,184.1438 370.9157,186.9168 C370.9157,189.6918 371.0917,190.3658 371.6627,190.9778 C372.1237,191.4468 372.8077,191.7738 373.6417,191.7738 C374.4777,191.7738 375.1577,191.4468 375.5977,190.9778 C376.1707,190.3658 376.3687,189.6918 376.3687,186.9168 C376.3687,184.1438 376.1707,183.4488 375.5977,182.8378 M377.8197,192.7728 C376.7627,193.7528 375.4447,194.3028 373.6417,194.3028 C371.8387,194.3028 370.4967,193.7528 369.4427,192.7728 C367.8817,191.3238 367.8607,189.6918 367.8607,186.9168 C367.8607,184.1438 367.8817,182.5108 369.4427,181.0618 C370.4967,180.0828 371.8387,179.5318 373.6417,179.5318 C375.4447,179.5318 376.7627,180.0828 377.8197,181.0618 C379.3797,182.5108 379.4227,184.1438 379.4227,186.9168 C379.4227,189.6918 379.3797,191.3238 377.8197,192.7728" id="Fill-50" fill="#363F46" mask="url(#mask-2)"></path>
            <path d="M391.9336,183.0829 C391.4286,182.4909 390.6816,182.1849 389.6476,182.1849 L387.3186,182.1849 L387.3186,191.6499 L389.6476,191.6499 C390.6816,191.6499 391.4286,191.3449 391.9336,190.7529 C392.5066,190.1199 392.5716,189.2019 392.5716,186.9169 C392.5716,184.6319 392.5066,183.7139 391.9336,183.0829 M394.6376,192.0599 C393.5176,193.5069 392.0446,194.1809 389.9116,194.1809 L384.2626,194.1809 L384.2626,179.6539 L389.9116,179.6539 C392.0446,179.6539 393.5176,180.3269 394.6376,181.7759 C395.6066,183.0209 395.6276,184.5109 395.6276,186.9169 C395.6276,189.3249 395.6066,190.8149 394.6376,192.0599" id="Fill-51" fill="#363F46" mask="url(#mask-2)"></path>
            <polygon id="Fill-52" fill="#363F46" mask="url(#mask-2)" points="400.4668 194.1805 400.4668 179.6545 410.7768 179.6545 410.7768 182.1845 403.5228 182.1845 403.5228 185.5915 409.6998 185.5915 409.6998 188.1205 403.5228 188.1205 403.5228 191.6505 410.7768 191.6505 410.7768 194.1805"></polygon>
            <path d="M421.4189,182.1845 L418.5389,182.1845 L418.5389,186.0205 L421.4189,186.0205 C422.7609,186.0205 423.6399,185.2235 423.6399,184.1025 C423.6399,182.9805 422.7609,182.1845 421.4189,182.1845 Z M423.7939,194.1805 L420.7369,188.3865 L418.5389,188.3865 L418.5389,194.1805 L415.4829,194.1805 L415.4829,179.6545 L421.6169,179.6545 C424.8049,179.6545 426.6959,181.6745 426.6959,184.1025 C426.6959,186.1415 425.3549,187.4075 423.8369,187.9175 L427.3329,194.1805 L423.7939,194.1805 Z" id="Fill-53" fill="#363F46" mask="url(#mask-2)"></path>
            <polygon id="Fill-54" fill="#363F46" mask="url(#mask-2)" points="440.832 194.1805 434.633 185.2645 434.633 194.1805 431.577 194.1805 431.577 179.6545 434.302 179.6545 440.503 188.5495 440.503 179.6545 443.558 179.6545 443.558 194.1805"></polygon>
            <path d="M456.1357,182.8378 C455.6957,182.3678 455.0147,182.0628 454.1797,182.0628 C453.3447,182.0628 452.6617,182.3678 452.1997,182.8378 C451.6297,183.4488 451.4537,184.1438 451.4537,186.9168 C451.4537,189.6918 451.6297,190.3658 452.1997,190.9778 C452.6617,191.4468 453.3447,191.7738 454.1797,191.7738 C455.0147,191.7738 455.6957,191.4468 456.1357,190.9778 C456.7077,190.3658 456.9057,189.6918 456.9057,186.9168 C456.9057,184.1438 456.7077,183.4488 456.1357,182.8378 M458.3567,192.7728 C457.3007,193.7528 455.9827,194.3028 454.1797,194.3028 C452.3757,194.3028 451.0347,193.7528 449.9797,192.7728 C448.4187,191.3238 448.3977,189.6918 448.3977,186.9168 C448.3977,184.1438 448.4187,182.5108 449.9797,181.0618 C451.0347,180.0828 452.3757,179.5318 454.1797,179.5318 C455.9827,179.5318 457.3007,180.0828 458.3567,181.0618 C459.9167,182.5108 459.9597,184.1438 459.9597,186.9168 C459.9597,189.6918 459.9167,191.3238 458.3567,192.7728" id="Fill-55" fill="#363F46" mask="url(#mask-2)"></path>
            <path d="M458.3164,205.5048 C436.2264,254.5748 386.9224,288.7428 329.6114,288.7428 C279.0694,288.7428 234.7604,262.1608 209.8404,222.2318 L216.4494,221.5418 L196.4804,205.8388 L199.1664,231.0928 L203.0344,226.1508 C229.0244,267.0068 274.6904,294.1198 326.6924,294.1198 C327.2134,294.1198 327.3744,294.1068 327.5434,294.1068 C329.1184,294.0968 330.6904,294.0598 332.2514,294.0008 C333.6044,293.9538 334.9474,293.8818 336.2904,293.8038 C336.9284,293.7588 337.5774,293.7118 338.2314,293.6628 C393.7314,289.4798 440.5794,254.3618 461.6204,205.5048 L458.3164,205.5048 Z" id="Fill-56" fill="#C5342E" mask="url(#mask-2)"></path>
        </g>
    </g>
</svg>